<svg width="25" height="26" viewBox="0 0 25 26" fill="none" xmlns="http://www.w3.org/2000/svg">
<g clip-path="url(#clip0_1027_11317)">
<path d="M12.03 25.0297C18.674 25.0297 24.06 19.6437 24.06 12.9997C24.06 6.35574 18.674 0.969727 12.03 0.969727C5.38601 0.969727 0 6.35574 0 12.9997C0 19.6437 5.38601 25.0297 12.03 25.0297Z" fill="#FFBC00"/>
<path d="M19.2179 13.9681V18.9278H16.3424V14.3005C16.3424 13.1386 15.9272 12.3452 14.8861 12.3452C14.0915 12.3452 13.6195 12.8793 13.4111 13.3966C13.3354 13.5814 13.3159 13.8381 13.3159 14.0974V18.9276H10.4402C10.4402 18.9276 10.4788 11.0904 10.4402 10.2792H13.3161V11.5047C13.3103 11.5144 13.3022 11.5238 13.297 11.5331H13.3161V11.5047C13.6982 10.9167 14.3797 10.0761 15.9077 10.0761C17.7995 10.0761 19.2179 11.3122 19.2179 13.9681ZM7.4319 6.11035C6.44824 6.11035 5.80469 6.75605 5.80469 7.6044C5.80469 8.43473 6.42958 9.09909 7.39416 9.09909H7.41282C8.41578 9.09909 9.03939 8.43473 9.03939 7.6044C9.02031 6.75605 8.41578 6.11035 7.4319 6.11035ZM5.9756 18.9278H8.85025V10.2792H5.9756V18.9278Z" fill="#F1F2F2"/>
</g>
<defs>
<clipPath id="clip0_1027_11317">
<rect width="24.06" height="24.06" fill="white" transform="translate(0 0.969971)"/>
</clipPath>
</defs>
</svg>
