<?xml version="1.0" encoding="utf-8"?>
<!-- Generator: Adobe Illustrator 24.2.3, SVG Export Plug-In . SVG Version: 6.00 Build 0)  -->
<svg version="1.1" id="Layer_1" xmlns="http://www.w3.org/2000/svg" xmlns:xlink="http://www.w3.org/1999/xlink" x="0px" y="0px"
	 viewBox="0 0 1882 1867.7" style="enable-background:new 0 0 1882 1867.7;" xml:space="preserve">
<style type="text/css">
	.st0{fill:#FFB600;}
</style>
<g>
	<g>
		<path class="st0" d="M938.4,1782.2c-32.2,0-62.5-12.5-85.3-35.3l-733.3-733.3c-47-47-47-123.5,0-170.6l733.3-733.3
			c47-47,123.6-47,170.6,0L1757,842.9c22.8,22.8,35.3,53.1,35.3,85.3s-12.5,62.5-35.3,85.3l-733.3,733.3
			C1000.9,1769.6,970.7,1782.2,938.4,1782.2z M938.4,80.5c-29.3,0-58.6,11.2-80.9,33.5L124.2,847.3c-44.6,44.6-44.6,117.3,0,161.9
			l733.3,733.3c21.6,21.6,50.4,33.5,80.9,33.5c30.6,0,59.3-11.9,80.9-33.5l733.3-733.3c21.6-21.6,33.5-50.4,33.5-80.9
			c0-30.6-11.9-59.3-33.5-80.9L1019.4,114C997.1,91.7,967.7,80.5,938.4,80.5z"/>
	</g>
	<g>
		<path class="st0" d="M245.6,594.1c-99.1-99.1-99.1-259.6,0-358.7s259.6-99.1,358.7,0"/>
		<path class="st0" d="M1675.1,1220.7c11.1,11.1,18,26.5,18,43.5v322.1c0,33.9-27.5,61.5-61.5,61.5h-322.1c-17,0-32.3-6.9-43.5-18"
			/>
		<g>
			<defs>
				<path id="SVGID_1_" d="M1630.9,845.1l-609.3-609.3c-45.9-45.9-120.3-45.9-166.2,0L246,845.1c-45.9,45.9-45.9,120.3,0,166.2
					l609.3,609.3c45.9,45.9,120.3,45.9,166.2,0l609.3-609.3C1676.8,965.5,1676.8,891,1630.9,845.1z"/>
			</defs>
			<clipPath id="SVGID_2_">
				<use xlink:href="#SVGID_1_"  style="overflow:visible;"/>
			</clipPath>
			<g transform="matrix(1 0 0 1 0 0)" style="clip-path:url(#SVGID_2_);">
				
					<image style="overflow:visible;" width="6983" height="4008" xlink:href="D:\CIDS-DESIGNS\CIDS-DESIGN-Branding-assets\Brand-imagery\images\iStock-1372400701.jpg"  transform="matrix(0.3665 0 0 0.3665 -354.792 193.8041)">
				</image>
			</g>
		</g>
	</g>
</g>
</svg>
