<?xml version="1.0" encoding="utf-8"?>
<!-- Generator: Adobe Illustrator 24.2.3, SVG Export Plug-In . SVG Version: 6.00 Build 0)  -->
<svg version="1.1" id="Layer_1" xmlns="http://www.w3.org/2000/svg" xmlns:xlink="http://www.w3.org/1999/xlink" x="0px" y="0px"
	 viewBox="0 0 1882 1867.7" style="enable-background:new 0 0 1882 1867.7;" xml:space="preserve">
<style type="text/css">
	.st0{fill:#FFB600;}
</style>
<g>
	<path class="st0" d="M938.4,1782.2c-32.2,0-62.5-12.5-85.3-35.3l-733.3-733.3c-47-47-47-123.5,0-170.6l733.3-733.3
		c47-47,123.6-47,170.6,0L1757,842.9c22.8,22.8,35.3,53.1,35.3,85.3s-12.5,62.5-35.3,85.3l-733.3,733.3
		C1000.9,1769.6,970.7,1782.2,938.4,1782.2z M938.4,80.5c-29.3,0-58.6,11.2-80.9,33.5L124.2,847.3c-44.6,44.6-44.6,117.3,0,161.9
		l733.3,733.3c21.6,21.6,50.4,33.5,80.9,33.5c30.6,0,59.3-11.9,80.9-33.5l733.3-733.3c21.6-21.6,33.5-50.4,33.5-80.9
		c0-30.6-11.9-59.3-33.5-80.9L1019.4,114C997.1,91.7,967.7,80.5,938.4,80.5z"/>
</g>
<path class="st0" d="M1630.9,845.1l-609.3-609.3c-45.9-45.9-120.3-45.9-166.2,0L246,845.1c-45.9,45.9-45.9,120.3,0,166.2
	l609.3,609.3c45.9,45.9,120.3,45.9,166.2,0l609.3-609.3C1676.8,965.5,1676.8,891,1630.9,845.1z"/>
</svg>
