<?xml version="1.0" encoding="utf-8"?>
<!-- Generator: Adobe Illustrator 24.2.3, SVG Export Plug-In . SVG Version: 6.00 Build 0)  -->
<svg version="1.1" id="Layer_1" xmlns="http://www.w3.org/2000/svg" xmlns:xlink="http://www.w3.org/1999/xlink" x="0px" y="0px"
	 viewBox="0 0 587.4 594.5" style="enable-background:new 0 0 587.4 594.5;" xml:space="preserve">
<style type="text/css">
	.st0{fill:#FFB600;}
</style>
<g>
	<g>
		<path class="st0" d="M298.9,563.8l206.5-206.5l40.3-40.3c8.2-8.2,8.2-21.4,0-29.5L298.9,40.7l0,0c-30.4,30.4-30.4,79.7,0,110.1
			l136.7,136.7c8.2,8.2,8.2,21.4,0,29.5L298.9,453.7C268.5,484.1,268.5,533.4,298.9,563.8L298.9,563.8z"/>
		<path class="st0" d="M61.2,563.8l206.5-206.5L308,317c8.2-8.2,8.2-21.4,0-29.5L61.2,40.7l0,0c-30.4,30.4-30.4,79.7,0,110.1
			l136.7,136.7c8.2,8.2,8.2,21.4,0,29.5L61.2,453.7C30.8,484.1,30.8,533.4,61.2,563.8L61.2,563.8z"/>
	</g>
</g>
</svg>
